<mxfile host="app.diagrams.net" agent="Mozilla/5.0 (Windows NT 10.0; Win64; x64) AppleWebKit/537.36 (KHTML, like Gecko) Chrome/128.0.0.0 Safari/537.36 Edg/128.0.0.0" version="24.7.8">
  <diagram id="dFSEmgIlatqLbQOFzwdS" name="Page-1">
    <mxGraphModel dx="1012" dy="591" grid="1" gridSize="10" guides="1" tooltips="1" connect="1" arrows="1" fold="1" page="1" pageScale="1" pageWidth="850" pageHeight="1100" math="0" shadow="1">
      <root>
        <mxCell id="0" />
        <mxCell id="1" parent="0" />
        <mxCell id="knGnKSw78JdQFl1_DNy8-3" value="Load Balancer" style="rounded=0;whiteSpace=wrap;html=1;" parent="1" vertex="1">
          <mxGeometry x="230" y="350" width="120" height="60" as="geometry" />
        </mxCell>
        <mxCell id="knGnKSw78JdQFl1_DNy8-4" value="PostgreSql" style="shape=cylinder3;whiteSpace=wrap;html=1;boundedLbl=1;backgroundOutline=1;size=15;rounded=0;" parent="1" vertex="1">
          <mxGeometry x="760" y="340" width="70" height="80" as="geometry" />
        </mxCell>
        <mxCell id="knGnKSw78JdQFl1_DNy8-5" value="" style="rounded=0;whiteSpace=wrap;html=1;align=left;" parent="1" vertex="1">
          <mxGeometry x="100" y="545" width="300" height="120" as="geometry" />
        </mxCell>
        <mxCell id="knGnKSw78JdQFl1_DNy8-6" value="Worker 1" style="text;html=1;strokeColor=none;fillColor=none;align=left;verticalAlign=middle;whiteSpace=wrap;rounded=0;" parent="1" vertex="1">
          <mxGeometry x="100" y="510" width="60" height="30" as="geometry" />
        </mxCell>
        <mxCell id="knGnKSw78JdQFl1_DNy8-7" value="Worker Controller" style="rounded=0;whiteSpace=wrap;html=1;" parent="1" vertex="1">
          <mxGeometry x="105" y="550" width="125" height="30" as="geometry" />
        </mxCell>
        <mxCell id="knGnKSw78JdQFl1_DNy8-8" value="Managed container 1" style="rounded=0;whiteSpace=wrap;html=1;" parent="1" vertex="1">
          <mxGeometry x="105" y="590" width="125" height="30" as="geometry" />
        </mxCell>
        <mxCell id="knGnKSw78JdQFl1_DNy8-9" value="Managed container 2" style="rounded=0;whiteSpace=wrap;html=1;" parent="1" vertex="1">
          <mxGeometry x="105" y="630" width="125" height="30" as="geometry" />
        </mxCell>
        <mxCell id="knGnKSw78JdQFl1_DNy8-10" value="Managed container 3" style="rounded=0;whiteSpace=wrap;html=1;" parent="1" vertex="1">
          <mxGeometry x="270" y="550" width="125" height="30" as="geometry" />
        </mxCell>
        <mxCell id="knGnKSw78JdQFl1_DNy8-11" value="Managed container 4" style="rounded=0;whiteSpace=wrap;html=1;" parent="1" vertex="1">
          <mxGeometry x="270" y="590" width="125" height="30" as="geometry" />
        </mxCell>
        <mxCell id="knGnKSw78JdQFl1_DNy8-12" value="" style="rounded=0;whiteSpace=wrap;html=1;align=left;" parent="1" vertex="1">
          <mxGeometry x="540" y="545" width="300" height="120" as="geometry" />
        </mxCell>
        <mxCell id="knGnKSw78JdQFl1_DNy8-13" value="Worker n" style="text;html=1;strokeColor=none;fillColor=none;align=left;verticalAlign=middle;whiteSpace=wrap;rounded=0;" parent="1" vertex="1">
          <mxGeometry x="580" y="510" width="60" height="30" as="geometry" />
        </mxCell>
        <mxCell id="knGnKSw78JdQFl1_DNy8-14" value="Worker Controller" style="rounded=0;whiteSpace=wrap;html=1;" parent="1" vertex="1">
          <mxGeometry x="545" y="550" width="125" height="30" as="geometry" />
        </mxCell>
        <mxCell id="knGnKSw78JdQFl1_DNy8-15" value="Managed container 1" style="rounded=0;whiteSpace=wrap;html=1;" parent="1" vertex="1">
          <mxGeometry x="545" y="590" width="125" height="30" as="geometry" />
        </mxCell>
        <mxCell id="knGnKSw78JdQFl1_DNy8-16" value="Managed container 2" style="rounded=0;whiteSpace=wrap;html=1;" parent="1" vertex="1">
          <mxGeometry x="545" y="630" width="125" height="30" as="geometry" />
        </mxCell>
        <mxCell id="knGnKSw78JdQFl1_DNy8-17" value="Managed container 3" style="rounded=0;whiteSpace=wrap;html=1;" parent="1" vertex="1">
          <mxGeometry x="710" y="550" width="125" height="30" as="geometry" />
        </mxCell>
        <mxCell id="knGnKSw78JdQFl1_DNy8-18" value="Managed container 4" style="rounded=0;whiteSpace=wrap;html=1;" parent="1" vertex="1">
          <mxGeometry x="710" y="590" width="125" height="30" as="geometry" />
        </mxCell>
        <mxCell id="knGnKSw78JdQFl1_DNy8-19" value="Managed container 5" style="rounded=0;whiteSpace=wrap;html=1;" parent="1" vertex="1">
          <mxGeometry x="710" y="630" width="125" height="30" as="geometry" />
        </mxCell>
        <mxCell id="knGnKSw78JdQFl1_DNy8-24" value="" style="endArrow=none;dashed=1;html=1;dashPattern=1 4;strokeWidth=2;rounded=0;entryX=0;entryY=0.5;entryDx=0;entryDy=0;" parent="1" target="knGnKSw78JdQFl1_DNy8-12" edge="1">
          <mxGeometry width="50" height="50" relative="1" as="geometry">
            <mxPoint x="404" y="605" as="sourcePoint" />
            <mxPoint x="560" y="610" as="targetPoint" />
          </mxGeometry>
        </mxCell>
        <mxCell id="Y7V88AtCgE-KLZqyX0Jm-5" value="Request n" style="ellipse;whiteSpace=wrap;html=1;rounded=0;" parent="1" vertex="1">
          <mxGeometry x="60" y="400" width="120" height="80" as="geometry" />
        </mxCell>
        <mxCell id="Y7V88AtCgE-KLZqyX0Jm-4" value="Request 1" style="ellipse;whiteSpace=wrap;html=1;rounded=0;" parent="1" vertex="1">
          <mxGeometry x="60" y="284" width="120" height="80" as="geometry" />
        </mxCell>
        <mxCell id="Y7V88AtCgE-KLZqyX0Jm-7" value="" style="endArrow=classic;html=1;rounded=0;exitX=1;exitY=0.5;exitDx=0;exitDy=0;entryX=0;entryY=0.5;entryDx=0;entryDy=0;fillColor=#d5e8d4;strokeColor=#82b366;strokeWidth=2;" parent="1" source="Y7V88AtCgE-KLZqyX0Jm-4" target="knGnKSw78JdQFl1_DNy8-3" edge="1">
          <mxGeometry width="50" height="50" relative="1" as="geometry">
            <mxPoint x="440" y="450" as="sourcePoint" />
            <mxPoint x="490" y="400" as="targetPoint" />
          </mxGeometry>
        </mxCell>
        <mxCell id="Y7V88AtCgE-KLZqyX0Jm-8" value="" style="endArrow=classic;html=1;rounded=0;exitX=0.5;exitY=1;exitDx=0;exitDy=0;entryX=1;entryY=0.5;entryDx=0;entryDy=0;fillColor=#d5e8d4;strokeColor=#82b366;strokeWidth=2;" parent="1" source="knGnKSw78JdQFl1_DNy8-3" target="knGnKSw78JdQFl1_DNy8-16" edge="1">
          <mxGeometry width="50" height="50" relative="1" as="geometry">
            <mxPoint x="470" y="440" as="sourcePoint" />
            <mxPoint x="720" y="500" as="targetPoint" />
            <Array as="points">
              <mxPoint x="290" y="480" />
              <mxPoint x="690" y="480" />
              <mxPoint x="690" y="645" />
            </Array>
          </mxGeometry>
        </mxCell>
        <mxCell id="Y7V88AtCgE-KLZqyX0Jm-9" value="" style="endArrow=classic;html=1;rounded=0;entryX=0;entryY=0.5;entryDx=0;entryDy=0;fillColor=#d5e8d4;strokeColor=#82b366;strokeWidth=2;" parent="1" target="knGnKSw78JdQFl1_DNy8-19" edge="1">
          <mxGeometry width="50" height="50" relative="1" as="geometry">
            <mxPoint x="290" y="410" as="sourcePoint" />
            <mxPoint x="700" y="655" as="targetPoint" />
            <Array as="points">
              <mxPoint x="290" y="480" />
              <mxPoint x="690" y="480" />
              <mxPoint x="690" y="645" />
              <mxPoint x="710" y="645" />
            </Array>
          </mxGeometry>
        </mxCell>
        <mxCell id="Y7V88AtCgE-KLZqyX0Jm-10" value="" style="endArrow=classic;html=1;rounded=0;exitX=0.5;exitY=1;exitDx=0;exitDy=0;entryX=0;entryY=0.5;entryDx=0;entryDy=0;fillColor=#d5e8d4;strokeColor=#82b366;" parent="1" source="knGnKSw78JdQFl1_DNy8-3" target="knGnKSw78JdQFl1_DNy8-18" edge="1">
          <mxGeometry width="50" height="50" relative="1" as="geometry">
            <mxPoint x="472" y="430" as="sourcePoint" />
            <mxPoint x="740" y="655" as="targetPoint" />
            <Array as="points">
              <mxPoint x="290" y="480" />
              <mxPoint x="690" y="480" />
              <mxPoint x="690" y="605" />
              <mxPoint x="710" y="605" />
            </Array>
          </mxGeometry>
        </mxCell>
        <mxCell id="Y7V88AtCgE-KLZqyX0Jm-11" value="" style="endArrow=classic;html=1;rounded=0;exitX=0.5;exitY=1;exitDx=0;exitDy=0;entryX=1;entryY=0.5;entryDx=0;entryDy=0;fillColor=#d5e8d4;strokeColor=#82b366;strokeWidth=2;" parent="1" source="knGnKSw78JdQFl1_DNy8-3" target="knGnKSw78JdQFl1_DNy8-15" edge="1">
          <mxGeometry width="50" height="50" relative="1" as="geometry">
            <mxPoint x="472" y="430" as="sourcePoint" />
            <mxPoint x="740" y="615" as="targetPoint" />
            <Array as="points">
              <mxPoint x="290" y="480" />
              <mxPoint x="690" y="480" />
              <mxPoint x="690" y="605" />
              <mxPoint x="710" y="605" />
            </Array>
          </mxGeometry>
        </mxCell>
        <mxCell id="Y7V88AtCgE-KLZqyX0Jm-12" value="" style="endArrow=classic;html=1;rounded=0;exitX=0.5;exitY=1;exitDx=0;exitDy=0;entryX=0;entryY=0.5;entryDx=0;entryDy=0;fillColor=#d5e8d4;strokeColor=#82b366;strokeWidth=2;" parent="1" source="knGnKSw78JdQFl1_DNy8-3" target="knGnKSw78JdQFl1_DNy8-17" edge="1">
          <mxGeometry width="50" height="50" relative="1" as="geometry">
            <mxPoint x="482" y="440" as="sourcePoint" />
            <mxPoint x="700" y="615" as="targetPoint" />
            <Array as="points">
              <mxPoint x="290" y="480" />
              <mxPoint x="690" y="480" />
              <mxPoint x="690" y="565" />
              <mxPoint x="710" y="565" />
            </Array>
          </mxGeometry>
        </mxCell>
        <mxCell id="Y7V88AtCgE-KLZqyX0Jm-13" value="" style="endArrow=classic;html=1;rounded=0;entryX=1;entryY=0.5;entryDx=0;entryDy=0;fillColor=#d5e8d4;strokeColor=#82b366;strokeWidth=2;" parent="1" target="knGnKSw78JdQFl1_DNy8-9" edge="1">
          <mxGeometry width="50" height="50" relative="1" as="geometry">
            <mxPoint x="290" y="410" as="sourcePoint" />
            <mxPoint x="300" y="450" as="targetPoint" />
            <Array as="points">
              <mxPoint x="290" y="480" />
              <mxPoint x="250" y="480" />
              <mxPoint x="250" y="645" />
              <mxPoint x="230" y="645" />
            </Array>
          </mxGeometry>
        </mxCell>
        <mxCell id="Y7V88AtCgE-KLZqyX0Jm-14" value="" style="endArrow=classic;html=1;rounded=0;exitX=0.5;exitY=1;exitDx=0;exitDy=0;entryX=1;entryY=0.5;entryDx=0;entryDy=0;fillColor=#d5e8d4;strokeColor=#82b366;" parent="1" source="knGnKSw78JdQFl1_DNy8-3" target="knGnKSw78JdQFl1_DNy8-8" edge="1">
          <mxGeometry width="50" height="50" relative="1" as="geometry">
            <mxPoint x="472" y="430" as="sourcePoint" />
            <mxPoint x="220" y="655" as="targetPoint" />
            <Array as="points">
              <mxPoint x="290" y="480" />
              <mxPoint x="250" y="480" />
              <mxPoint x="250" y="605" />
              <mxPoint x="230" y="605" />
            </Array>
          </mxGeometry>
        </mxCell>
        <mxCell id="Y7V88AtCgE-KLZqyX0Jm-15" value="" style="endArrow=classic;html=1;rounded=0;exitX=0.5;exitY=1;exitDx=0;exitDy=0;entryX=0;entryY=0.5;entryDx=0;entryDy=0;fillColor=#d5e8d4;strokeColor=#82b366;strokeWidth=2;" parent="1" source="knGnKSw78JdQFl1_DNy8-3" target="knGnKSw78JdQFl1_DNy8-11" edge="1">
          <mxGeometry width="50" height="50" relative="1" as="geometry">
            <mxPoint x="482" y="440" as="sourcePoint" />
            <mxPoint x="220" y="615" as="targetPoint" />
            <Array as="points">
              <mxPoint x="290" y="480" />
              <mxPoint x="250" y="480" />
              <mxPoint x="250" y="605" />
              <mxPoint x="230" y="605" />
            </Array>
          </mxGeometry>
        </mxCell>
        <mxCell id="Y7V88AtCgE-KLZqyX0Jm-16" value="" style="endArrow=classic;html=1;rounded=0;entryX=0;entryY=0.5;entryDx=0;entryDy=0;fillColor=#d5e8d4;strokeColor=#82b366;exitX=0.5;exitY=1;exitDx=0;exitDy=0;strokeWidth=2;" parent="1" source="knGnKSw78JdQFl1_DNy8-3" target="knGnKSw78JdQFl1_DNy8-10" edge="1">
          <mxGeometry width="50" height="50" relative="1" as="geometry">
            <mxPoint x="460" y="420" as="sourcePoint" />
            <mxPoint x="260" y="615" as="targetPoint" />
            <Array as="points">
              <mxPoint x="290" y="480" />
              <mxPoint x="250" y="480" />
              <mxPoint x="250" y="565" />
            </Array>
          </mxGeometry>
        </mxCell>
        <mxCell id="2" value="Scaling Controller" style="rounded=0;whiteSpace=wrap;html=1;" parent="1" vertex="1">
          <mxGeometry x="580" y="350" width="120" height="60" as="geometry" />
        </mxCell>
        <mxCell id="7" value="" style="group;spacingRight=22;spacingLeft=0;" parent="1" vertex="1" connectable="0">
          <mxGeometry x="570" y="130" width="160" height="60" as="geometry" />
        </mxCell>
        <mxCell id="Y7V88AtCgE-KLZqyX0Jm-1" value="Balancer&lt;span style=&quot;background-color: initial;&quot;&gt;&amp;nbsp;API&amp;nbsp; &amp;nbsp;&amp;nbsp;&lt;/span&gt;" style="rounded=0;whiteSpace=wrap;html=1;align=right;" parent="7" vertex="1">
          <mxGeometry width="150" height="60" as="geometry" />
        </mxCell>
        <mxCell id="knGnKSw78JdQFl1_DNy8-1" value="UI" style="ellipse;whiteSpace=wrap;html=1;aspect=fixed;rounded=0;" parent="7" vertex="1">
          <mxGeometry x="4" y="5" width="50" height="50" as="geometry" />
        </mxCell>
        <mxCell id="10" value="" style="endArrow=classic;html=1;rounded=0;fillColor=#dae8fc;strokeColor=#6c8ebf;exitX=0.467;exitY=0.965;exitDx=0;exitDy=0;entryX=0.5;entryY=0;entryDx=0;entryDy=0;exitPerimeter=0;strokeWidth=2;" parent="1" source="Y7V88AtCgE-KLZqyX0Jm-1" target="2" edge="1">
          <mxGeometry width="50" height="50" relative="1" as="geometry">
            <mxPoint x="40" y="50" as="sourcePoint" />
            <mxPoint x="690" y="330" as="targetPoint" />
          </mxGeometry>
        </mxCell>
        <mxCell id="28" value="" style="endArrow=classic;startArrow=classic;html=1;rounded=0;exitX=0;exitY=0.5;exitDx=0;exitDy=0;exitPerimeter=0;entryX=1;entryY=0.5;entryDx=0;entryDy=0;" parent="1" source="knGnKSw78JdQFl1_DNy8-4" target="2" edge="1">
          <mxGeometry width="50" height="50" relative="1" as="geometry">
            <mxPoint x="380" y="410" as="sourcePoint" />
            <mxPoint x="430" y="360" as="targetPoint" />
          </mxGeometry>
        </mxCell>
        <mxCell id="33" value="" style="endArrow=classic;html=1;rounded=0;fillColor=#dae8fc;strokeColor=#6c8ebf;exitX=1;exitY=0.5;exitDx=0;exitDy=0;entryX=0;entryY=0.5;entryDx=0;entryDy=0;strokeWidth=2;" parent="1" source="knGnKSw78JdQFl1_DNy8-3" target="2" edge="1">
          <mxGeometry width="50" height="50" relative="1" as="geometry">
            <mxPoint x="590" y="430" as="sourcePoint" />
            <mxPoint x="360" y="430" as="targetPoint" />
          </mxGeometry>
        </mxCell>
        <mxCell id="34" value="" style="endArrow=classic;html=1;rounded=0;exitX=1;exitY=0.5;exitDx=0;exitDy=0;entryX=0;entryY=0.5;entryDx=0;entryDy=0;fillColor=#d5e8d4;strokeColor=#82b366;strokeWidth=2;" parent="1" source="Y7V88AtCgE-KLZqyX0Jm-5" target="knGnKSw78JdQFl1_DNy8-3" edge="1">
          <mxGeometry width="50" height="50" relative="1" as="geometry">
            <mxPoint x="190.00000000000102" y="350" as="sourcePoint" />
            <mxPoint x="240" y="405" as="targetPoint" />
          </mxGeometry>
        </mxCell>
        <mxCell id="35" value="" style="endArrow=none;dashed=1;html=1;dashPattern=1 4;strokeWidth=2;rounded=0;entryX=0.5;entryY=0;entryDx=0;entryDy=0;" parent="1" target="Y7V88AtCgE-KLZqyX0Jm-5" edge="1">
          <mxGeometry width="50" height="50" relative="1" as="geometry">
            <mxPoint x="120" y="366" as="sourcePoint" />
            <mxPoint x="570" y="620" as="targetPoint" />
          </mxGeometry>
        </mxCell>
        <mxCell id="tov9AkVuQmoDXsoab4Kx-35" value="" style="shape=umlActor;verticalLabelPosition=bottom;verticalAlign=top;html=1;outlineConnect=0;align=center;" parent="1" vertex="1">
          <mxGeometry x="395" y="130" width="30" height="60" as="geometry" />
        </mxCell>
        <mxCell id="tov9AkVuQmoDXsoab4Kx-36" value="" style="endArrow=classic;html=1;rounded=0;entryX=0;entryY=0.5;entryDx=0;entryDy=0;strokeWidth=2;" parent="1" source="tov9AkVuQmoDXsoab4Kx-35" target="knGnKSw78JdQFl1_DNy8-1" edge="1">
          <mxGeometry width="50" height="50" relative="1" as="geometry">
            <mxPoint x="450" y="170" as="sourcePoint" />
            <mxPoint x="550" y="130" as="targetPoint" />
          </mxGeometry>
        </mxCell>
        <mxCell id="tov9AkVuQmoDXsoab4Kx-37" value="" style="endArrow=classic;html=1;rounded=0;exitX=0.5;exitY=0;exitDx=0;exitDy=0;entryX=0.667;entryY=-0.019;entryDx=0;entryDy=0;entryPerimeter=0;strokeWidth=2;" parent="1" source="knGnKSw78JdQFl1_DNy8-3" target="knGnKSw78JdQFl1_DNy8-4" edge="1">
          <mxGeometry width="50" height="50" relative="1" as="geometry">
            <mxPoint x="400" y="470" as="sourcePoint" />
            <mxPoint x="450" y="420" as="targetPoint" />
            <Array as="points">
              <mxPoint x="290" y="100" />
              <mxPoint x="807" y="100" />
            </Array>
          </mxGeometry>
        </mxCell>
        <mxCell id="tov9AkVuQmoDXsoab4Kx-38" value="" style="endArrow=classic;html=1;rounded=0;exitX=0.377;exitY=0.005;exitDx=0;exitDy=0;exitPerimeter=0;entryX=1;entryY=0.5;entryDx=0;entryDy=0;strokeWidth=2;" parent="1" source="knGnKSw78JdQFl1_DNy8-4" target="Y7V88AtCgE-KLZqyX0Jm-1" edge="1">
          <mxGeometry width="50" height="50" relative="1" as="geometry">
            <mxPoint x="400" y="470" as="sourcePoint" />
            <mxPoint x="450" y="420" as="targetPoint" />
            <Array as="points">
              <mxPoint x="786" y="160" />
            </Array>
          </mxGeometry>
        </mxCell>
        <mxCell id="tov9AkVuQmoDXsoab4Kx-39" value="" style="endArrow=classic;html=1;rounded=0;fillColor=#dae8fc;strokeColor=#6c8ebf;exitX=0.75;exitY=0;exitDx=0;exitDy=0;entryX=0.5;entryY=1;entryDx=0;entryDy=0;strokeWidth=2;" parent="1" source="knGnKSw78JdQFl1_DNy8-14" target="2" edge="1">
          <mxGeometry width="50" height="50" relative="1" as="geometry">
            <mxPoint x="360" y="390" as="sourcePoint" />
            <mxPoint x="590" y="390" as="targetPoint" />
          </mxGeometry>
        </mxCell>
        <mxCell id="tov9AkVuQmoDXsoab4Kx-40" value="" style="endArrow=classic;html=1;rounded=0;fillColor=#dae8fc;strokeColor=#6c8ebf;exitX=0.518;exitY=0;exitDx=0;exitDy=0;entryX=0.5;entryY=1;entryDx=0;entryDy=0;exitPerimeter=0;strokeWidth=2;" parent="1" source="knGnKSw78JdQFl1_DNy8-7" target="2" edge="1">
          <mxGeometry width="50" height="50" relative="1" as="geometry">
            <mxPoint x="360" y="390" as="sourcePoint" />
            <mxPoint x="640" y="420" as="targetPoint" />
            <Array as="points">
              <mxPoint x="170" y="500" />
              <mxPoint x="640" y="500" />
            </Array>
          </mxGeometry>
        </mxCell>
        <mxCell id="tov9AkVuQmoDXsoab4Kx-41" value="" style="endArrow=classic;html=1;rounded=0;exitX=1;exitY=0.5;exitDx=0;exitDy=0;fillColor=#d5e8d4;strokeColor=#82b366;strokeWidth=2;" parent="1" edge="1">
          <mxGeometry width="50" height="50" relative="1" as="geometry">
            <mxPoint x="70" y="710" as="sourcePoint" />
            <mxPoint x="120" y="710" as="targetPoint" />
          </mxGeometry>
        </mxCell>
        <mxCell id="tov9AkVuQmoDXsoab4Kx-42" value="" style="endArrow=classic;html=1;rounded=0;fillColor=#dae8fc;strokeColor=#6c8ebf;exitX=1;exitY=0.5;exitDx=0;exitDy=0;strokeWidth=2;" parent="1" edge="1">
          <mxGeometry width="50" height="50" relative="1" as="geometry">
            <mxPoint x="70" y="740" as="sourcePoint" />
            <mxPoint x="120" y="740" as="targetPoint" />
          </mxGeometry>
        </mxCell>
        <mxCell id="tov9AkVuQmoDXsoab4Kx-43" value="" style="endArrow=classic;html=1;rounded=0;strokeWidth=2;" parent="1" edge="1">
          <mxGeometry width="50" height="50" relative="1" as="geometry">
            <mxPoint x="70" y="770" as="sourcePoint" />
            <mxPoint x="120" y="770" as="targetPoint" />
          </mxGeometry>
        </mxCell>
        <mxCell id="tov9AkVuQmoDXsoab4Kx-44" value="Load balancer traffic" style="text;html=1;align=left;verticalAlign=middle;whiteSpace=wrap;rounded=0;" parent="1" vertex="1">
          <mxGeometry x="124" y="695" width="556" height="30" as="geometry" />
        </mxCell>
        <mxCell id="tov9AkVuQmoDXsoab4Kx-46" value="Microservices communication" style="text;html=1;align=left;verticalAlign=middle;whiteSpace=wrap;rounded=0;" parent="1" vertex="1">
          <mxGeometry x="125" y="725" width="565" height="30" as="geometry" />
        </mxCell>
        <mxCell id="tov9AkVuQmoDXsoab4Kx-47" value="Database communication" style="text;html=1;align=left;verticalAlign=middle;whiteSpace=wrap;rounded=0;" parent="1" vertex="1">
          <mxGeometry x="124" y="755" width="606" height="30" as="geometry" />
        </mxCell>
        <mxCell id="tov9AkVuQmoDXsoab4Kx-48" value="Balancer Administrator" style="text;html=1;align=center;verticalAlign=middle;whiteSpace=wrap;rounded=0;" parent="1" vertex="1">
          <mxGeometry x="325.63" y="190" width="168.75" height="30" as="geometry" />
        </mxCell>
      </root>
    </mxGraphModel>
  </diagram>
</mxfile>
